<?xml version="1.0" encoding="utf-8"?>
<!-- Generator: Adobe Illustrator 21.1.0, SVG Export Plug-In . SVG Version: 6.00 Build 0)  -->
<svg version="1.1" id="Layer_1" xmlns="http://www.w3.org/2000/svg" xmlns:xlink="http://www.w3.org/1999/xlink" x="0px" y="0px"
	 viewBox="0 0 1030 1024" style="enable-background:new 0 0 1030 1024;" xml:space="preserve">
<style type="text/css">
	.st0{fill:#FFFFFF;}
	.st1{fill:#EFF4FA;}
	.st2{fill:#989797;stroke:#FFFFFF;}
	.st3{fill:#DCD8D0;}
</style>
<g>
	<path id="path-1" class="st0" d="M347.7,232c-18.1,4.1-30.9,21.1-30.7,40.3c0.3,19.1,13.4,35.5,31.4,39.2
		c66.7,0.1,125.1,0.2,191.7,0.3c-37.9,43-71.7,80.6-110.7,123.4l-42,43.2c24.8,0.1,47.3,4.5,67.2,12.4
		c-62,41.1-105.6,112.7-106.8,205.5C349.5,860,476.3,859,476.3,859c66.2,0.1,164.4-58.5,164.4-204.3c-1.6-50.2-12-90.9-25.8-123.3
		c69.8,14.5,103.7,76.2,103.7,76.2s23.8,8.6,42.4-4.3c16.1-11.1,20.6-33.2,6.8-52.2c0,0-58.3-94.8-182.7-99.1
		c-7,0-13.9,0.2-20.8,0.8c-17.5-18.6-31-26.9-31-26.9l108-113c14.4-11.2,20.8-30.5,16.2-48.2c-4.3-16.6-17.6-29.3-34.1-32.6
		 M474.4,780.4c-19.6-1.4-57.5-24.6-52.4-96.4c5.1-70.8,47.6-120.9,99.2-143.1c28.3,36.8,41,86.5,34.5,139.4
		C536.6,770.5,492,780.5,476,780.5C475.4,780.5,474.9,780.5,474.4,780.4"/>
</g>
<title>mock-map</title>
<desc>Created with Sketch.</desc>
<rect id="Mask" x="-1" y="2.3" class="st1" width="1031" height="1024.2"/>
<polygon id="road3" class="st0" points="-1.8,474 492,2.3 390.7,0 -2,369.7 "/>
<rect id="Rectangle" x="-1" y="234" class="st0" width="1031" height="75"/>
<path id="road2" class="st0" d="M-2.8,953C314.9,635.8,632.7,318.7,950.4,1.5c-31.6-0.5-63.2-1-94.7-1.5
	C570.4,285.1,285.2,570.3,0,855.4C-0.9,887.9-1.9,920.5-2.8,953z"/>
<path id="road5" class="st0" d="M1030,811.8L739.5,519H636c130.9,135.5,261.7,271.1,392.6,406.6
	C1029.1,887.7,1029.5,849.8,1030,811.8z"/>
<polygon id="road6" class="st0" points="443.5,1024.3 -0.5,580.5 -0.2,686.4 352.3,1025.5 "/>
<g id="logo-shape" transform="translate(323.000000, 264.000000)">
	<g id="Clip-5">
		<path id="path-1_1_" class="st0" d="M24.7-32C6.6-27.9-6.3-10.9-6,8.3c0.3,19.1,13.4,35.5,31.4,39.2c66.7,0.1,125.1,0.2,191.7,0.3
			c-37.9,43-71.7,80.6-110.7,123.4l-42,43.2c24.8,0.1,47.3,4.5,67.2,12.4C69.7,267.9,26,339.6,24.8,432.3
			C26.5,596,153.3,595,153.3,595c66.2,0.1,164.4-58.5,164.4-204.3c-1.6-50.2-12-90.9-25.8-123.3c69.8,14.5,103.7,76.2,103.7,76.2
			s23.8,8.6,42.4-4.3c16.1-11.1,20.6-33.2,6.8-52.2c0,0-58.3-94.8-182.7-99.1c-7,0-13.9,0.2-20.8,0.8c-17.5-18.6-31-26.9-31-26.9
			l108-113c14.4-11.2,20.8-30.5,16.2-48.2c-4.3-16.6-17.6-29.3-34.1-32.6 M151.4,516.4c-19.6-1.4-57.5-24.6-52.4-96.4
			c5.1-70.8,47.6-120.9,99.2-143.1c28.3,36.8,41,86.5,34.5,139.4C213.6,506.5,169,516.5,153,516.5
			C152.4,516.5,151.9,516.5,151.4,516.4"/>
	</g>
</g>
<path id="Zyppys-Central" class="st2" d="M528.4,687.9h8v2.1h-11.1v-1.7l7.7-11.2h-7.7v-2.1h10.8v1.6L528.4,687.9z M542.3,686.4
	l2.3-7.5h2.7l-4.4,12.8c-0.7,1.9-1.8,2.8-3.4,2.8c-0.4,0-0.8-0.1-1.2-0.2v-1.9l0.5,0c0.6,0,1.1-0.1,1.4-0.3s0.6-0.6,0.8-1.2l0.4-1
	l-3.9-11h2.7L542.3,686.4z M558.3,684.6c0,1.7-0.4,3.1-1.2,4.1s-1.8,1.5-3.1,1.5c-1.2,0-2.2-0.4-2.9-1.2v5.3h-2.5v-15.4h2.3l0.1,1.1
	c0.7-0.9,1.7-1.3,3-1.3c1.4,0,2.4,0.5,3.2,1.5s1.2,2.4,1.2,4.2V684.6z M555.8,684.4c0-1.1-0.2-2-0.7-2.6s-1.1-1-1.9-1
	c-1,0-1.8,0.4-2.2,1.3v4.9c0.5,0.9,1.2,1.3,2.2,1.3c0.8,0,1.4-0.3,1.9-1S555.8,685.6,555.8,684.4z M570.1,684.6
	c0,1.7-0.4,3.1-1.2,4.1s-1.8,1.5-3.1,1.5c-1.2,0-2.2-0.4-2.9-1.2v5.3h-2.5v-15.4h2.3l0.1,1.1c0.7-0.9,1.7-1.3,3-1.3
	c1.4,0,2.4,0.5,3.2,1.5s1.2,2.4,1.2,4.2V684.6z M567.6,684.4c0-1.1-0.2-2-0.7-2.6s-1.1-1-1.9-1c-1,0-1.8,0.4-2.2,1.3v4.9
	c0.5,0.9,1.2,1.3,2.2,1.3c0.8,0,1.4-0.3,1.9-1S567.6,685.6,567.6,684.4z M576.1,686.4l2.3-7.5h2.7l-4.4,12.8
	c-0.7,1.9-1.8,2.8-3.4,2.8c-0.4,0-0.8-0.1-1.2-0.2v-1.9l0.5,0c0.6,0,1.1-0.1,1.4-0.3s0.6-0.6,0.8-1.2l0.4-1l-3.9-11h2.7L576.1,686.4
	z M588.7,687c0-0.4-0.2-0.8-0.5-1s-1-0.4-1.8-0.6s-1.6-0.4-2.1-0.7c-1.2-0.6-1.9-1.5-1.9-2.6c0-1,0.4-1.8,1.2-2.4s1.8-1,3.1-1
	c1.3,0,2.4,0.3,3.2,1s1.2,1.5,1.2,2.6h-2.5c0-0.5-0.2-0.9-0.5-1.2s-0.8-0.5-1.4-0.5c-0.5,0-1,0.1-1.3,0.4s-0.5,0.6-0.5,1
	c0,0.4,0.2,0.7,0.5,0.9s1,0.4,1.9,0.6s1.7,0.5,2.3,0.8s1,0.7,1.2,1.1s0.4,0.9,0.4,1.5c0,1-0.4,1.8-1.2,2.4s-1.9,0.9-3.3,0.9
	c-0.9,0-1.7-0.2-2.4-0.5s-1.3-0.8-1.7-1.4s-0.6-1.2-0.6-1.9h2.4c0,0.6,0.3,1,0.7,1.4s1,0.5,1.6,0.5c0.7,0,1.2-0.1,1.5-0.4
	S588.7,687.4,588.7,687z M610.2,685.1c-0.2,1.6-0.7,2.8-1.8,3.7s-2.4,1.3-4.1,1.3c-1.2,0-2.2-0.3-3.1-0.8s-1.6-1.4-2.1-2.4
	s-0.7-2.2-0.8-3.6v-1.4c0-1.4,0.2-2.6,0.7-3.7s1.2-1.9,2.1-2.5s2-0.9,3.2-0.9c1.6,0,3,0.4,4,1.3s1.6,2.2,1.8,3.8h-2.6
	c-0.1-1.1-0.4-1.8-0.9-2.3s-1.2-0.7-2.2-0.7c-1.1,0-2,0.4-2.6,1.2s-0.9,2-0.9,3.6v1.3c0,1.6,0.3,2.8,0.9,3.7s1.4,1.3,2.5,1.3
	c1,0,1.8-0.2,2.3-0.7s0.8-1.2,1-2.3H610.2z M617.1,690.2c-1.6,0-2.9-0.5-3.8-1.5s-1.5-2.3-1.5-4v-0.3c0-1.1,0.2-2.1,0.6-3
	s1-1.6,1.8-2s1.6-0.7,2.6-0.7c1.5,0,2.7,0.5,3.5,1.4s1.2,2.3,1.2,4.1v1h-7.2c0.1,0.9,0.4,1.6,0.9,2.2s1.2,0.8,2,0.8
	c1.1,0,2.1-0.5,2.8-1.4l1.3,1.3c-0.4,0.7-1,1.2-1.8,1.5S618,690.2,617.1,690.2z M616.8,680.7c-0.7,0-1.2,0.2-1.7,0.7s-0.7,1.1-0.8,2
	h4.7v-0.2c-0.1-0.8-0.3-1.5-0.7-1.9S617.5,680.7,616.8,680.7z M625.8,678.9l0.1,1.3c0.8-1,1.9-1.5,3.2-1.5c2.3,0,3.5,1.3,3.5,4v7.3
	h-2.5v-7.2c0-0.7-0.2-1.2-0.5-1.6s-0.8-0.5-1.5-0.5c-1,0-1.8,0.5-2.2,1.4v7.9h-2.5v-11.1H625.8z M638.3,676.2v2.7h2v1.8h-2v6.2
	c0,0.4,0.1,0.7,0.3,0.9s0.5,0.3,0.9,0.3c0.3,0,0.6,0,0.9-0.1v1.9c-0.6,0.2-1.1,0.2-1.6,0.2c-1.9,0-2.9-1.1-2.9-3.2v-6.3H634v-1.8
	h1.8v-2.7H638.3z M648,681.2c-0.3-0.1-0.7-0.1-1-0.1c-1.1,0-1.9,0.4-2.3,1.3v7.6h-2.5v-11.1h2.4l0.1,1.2c0.6-1,1.4-1.4,2.5-1.4
	c0.4,0,0.6,0,0.9,0.1L648,681.2z M656.2,690c-0.1-0.2-0.2-0.6-0.3-1c-0.8,0.8-1.8,1.2-2.9,1.2c-1.1,0-2-0.3-2.7-1s-1.1-1.4-1.1-2.4
	c0-1.2,0.4-2.1,1.3-2.7s2.1-0.9,3.8-0.9h1.5v-0.7c0-0.6-0.2-1-0.5-1.4s-0.8-0.5-1.5-0.5c-0.6,0-1,0.1-1.4,0.4s-0.5,0.6-0.5,1.1h-2.5
	c0-0.6,0.2-1.2,0.6-1.7s1-0.9,1.6-1.2s1.5-0.5,2.3-0.5c1.3,0,2.3,0.3,3.1,1s1.2,1.6,1.2,2.8v5c0,1,0.1,1.8,0.4,2.4v0.2H656.2z
	 M653.4,688.2c0.5,0,1-0.1,1.4-0.4s0.8-0.6,1-1v-2.1h-1.3c-0.9,0-1.6,0.2-2.1,0.5s-0.7,0.8-0.7,1.4c0,0.5,0.2,0.9,0.5,1.1
	S652.9,688.2,653.4,688.2z M663.6,690h-2.5v-15.8h2.5V690z"/>
<path id="RoadTrips" class="st2" d="M766.6,252.2h-2.9v5.8h-2.6v-14.9h5.2c1.7,0,3.1,0.4,4,1.2s1.4,1.9,1.4,3.4c0,1-0.2,1.8-0.7,2.5
	s-1.2,1.2-2,1.6l3.4,6.2v0.1h-2.8L766.6,252.2z M763.7,250.2h2.7c0.9,0,1.6-0.2,2.1-0.7s0.7-1,0.7-1.8c0-0.8-0.2-1.4-0.7-1.9
	s-1.1-0.7-2-0.7h-2.7V250.2z M773.5,252.4c0-1.1,0.2-2.1,0.6-2.9s1-1.5,1.8-2s1.7-0.7,2.7-0.7c1.5,0,2.7,0.5,3.6,1.4
	s1.4,2.2,1.5,3.8l0,0.6c0,1.1-0.2,2.1-0.6,2.9s-1,1.5-1.8,2s-1.7,0.7-2.7,0.7c-1.6,0-2.8-0.5-3.8-1.6s-1.4-2.4-1.4-4.2V252.4z
	 M776,252.6c0,1.1,0.2,2,0.7,2.7s1.1,1,2,1s1.5-0.3,2-1s0.7-1.6,0.7-2.9c0-1.1-0.2-2-0.7-2.7s-1.1-1-2-1c-0.8,0-1.5,0.3-1.9,1
	S776,251.3,776,252.6z M792.5,258c-0.1-0.2-0.2-0.6-0.3-1c-0.8,0.8-1.8,1.2-2.9,1.2c-1.1,0-2-0.3-2.7-1s-1.1-1.4-1.1-2.4
	c0-1.2,0.4-2.1,1.3-2.7s2.1-0.9,3.8-0.9h1.5v-0.7c0-0.6-0.2-1-0.5-1.4s-0.8-0.5-1.5-0.5c-0.6,0-1,0.1-1.4,0.4s-0.5,0.6-0.5,1.1h-2.5
	c0-0.6,0.2-1.2,0.6-1.7s1-0.9,1.6-1.2s1.5-0.5,2.3-0.5c1.3,0,2.3,0.3,3.1,1s1.2,1.6,1.2,2.8v5c0,1,0.1,1.8,0.4,2.4v0.2H792.5z
	 M789.8,256.2c0.5,0,1-0.1,1.4-0.4s0.8-0.6,1-1v-2.1h-1.3c-0.9,0-1.6,0.2-2.1,0.5s-0.7,0.8-0.7,1.4c0,0.5,0.2,0.9,0.5,1.1
	S789.3,256.2,789.8,256.2z M796.8,252.4c0-1.7,0.4-3.1,1.2-4.1s1.9-1.6,3.2-1.6c1.2,0,2.1,0.4,2.9,1.2v-5.7h2.5V258h-2.3l-0.1-1.1
	c-0.7,0.9-1.7,1.4-3,1.4c-1.3,0-2.3-0.5-3.2-1.6S796.8,254.2,796.8,252.4z M799.3,252.6c0,1.1,0.2,2,0.7,2.6s1.1,0.9,1.9,0.9
	c1,0,1.8-0.5,2.2-1.4v-4.7c-0.5-0.9-1.2-1.3-2.2-1.3c-0.8,0-1.4,0.3-1.9,1S799.3,251.3,799.3,252.6z M820.2,245.2h-4.7V258h-2.6
	v-12.8h-4.6v-2.1h11.8V245.2z M827.7,249.2c-0.3-0.1-0.7-0.1-1-0.1c-1.1,0-1.9,0.4-2.3,1.3v7.6h-2.5v-11.1h2.4l0.1,1.2
	c0.6-1,1.4-1.4,2.5-1.4c0.4,0,0.6,0,0.9,0.1L827.7,249.2z M831.9,258h-2.5v-11.1h2.5V258z M829.3,244c0-0.4,0.1-0.7,0.4-1
	s0.6-0.4,1-0.4s0.8,0.1,1,0.4s0.4,0.6,0.4,1c0,0.4-0.1,0.7-0.4,0.9s-0.6,0.4-1,0.4s-0.8-0.1-1-0.4S829.3,244.4,829.3,244z
	 M844.3,252.6c0,1.7-0.4,3.1-1.2,4.1s-1.8,1.5-3.1,1.5c-1.2,0-2.2-0.4-2.9-1.2v5.3h-2.5v-15.4h2.3l0.1,1.1c0.7-0.9,1.7-1.3,3-1.3
	c1.4,0,2.4,0.5,3.2,1.5s1.2,2.4,1.2,4.2V252.6z M841.8,252.4c0-1.1-0.2-2-0.7-2.6s-1.1-1-1.9-1c-1,0-1.8,0.4-2.2,1.3v4.9
	c0.5,0.9,1.2,1.3,2.2,1.3c0.8,0,1.4-0.3,1.9-1S841.8,253.6,841.8,252.4z M852.7,255c0-0.4-0.2-0.8-0.5-1s-1-0.4-1.8-0.6
	s-1.6-0.4-2.1-0.7c-1.2-0.6-1.9-1.5-1.9-2.6c0-1,0.4-1.8,1.2-2.4s1.8-1,3.1-1c1.3,0,2.4,0.3,3.2,1s1.2,1.5,1.2,2.6h-2.5
	c0-0.5-0.2-0.9-0.5-1.2s-0.8-0.5-1.4-0.5c-0.5,0-1,0.1-1.3,0.4s-0.5,0.6-0.5,1c0,0.4,0.2,0.7,0.5,0.9s1,0.4,1.9,0.6s1.7,0.5,2.3,0.8
	s1,0.7,1.2,1.1s0.4,0.9,0.4,1.5c0,1-0.4,1.8-1.2,2.4s-1.9,0.9-3.3,0.9c-0.9,0-1.7-0.2-2.4-0.5s-1.3-0.8-1.7-1.4s-0.6-1.2-0.6-1.9
	h2.4c0,0.6,0.3,1,0.7,1.4s1,0.5,1.6,0.5c0.7,0,1.2-0.1,1.5-0.4S852.7,255.4,852.7,255z"/>
<path id="Hotels" class="st2" d="M108.4,472h-2.6v-6.6h-6.7v6.6h-2.6v-14.9h2.6v6.2h6.7v-6.2h2.6V472z M110.7,466.4
	c0-1.1,0.2-2.1,0.6-2.9s1-1.5,1.8-2s1.7-0.7,2.7-0.7c1.5,0,2.7,0.5,3.6,1.4s1.4,2.2,1.5,3.8l0,0.6c0,1.1-0.2,2.1-0.6,2.9
	s-1,1.5-1.8,2s-1.7,0.7-2.7,0.7c-1.6,0-2.8-0.5-3.8-1.6s-1.4-2.4-1.4-4.2V466.4z M113.2,466.6c0,1.1,0.2,2,0.7,2.7s1.1,1,2,1
	c0.8,0,1.5-0.3,2-1s0.7-1.6,0.7-2.9c0-1.1-0.2-2-0.7-2.7s-1.1-1-2-1c-0.8,0-1.5,0.3-1.9,1S113.2,465.3,113.2,466.6z M126.3,458.2
	v2.7h2v1.8h-2v6.2c0,0.4,0.1,0.7,0.3,0.9s0.5,0.3,0.9,0.3c0.3,0,0.6,0,0.9-0.1v1.9c-0.6,0.2-1.1,0.2-1.6,0.2c-1.9,0-2.9-1.1-2.9-3.2
	v-6.3H122v-1.8h1.8v-2.7H126.3z M135,472.2c-1.6,0-2.9-0.5-3.8-1.5s-1.5-2.3-1.5-4v-0.3c0-1.1,0.2-2.1,0.6-3s1-1.6,1.8-2
	s1.6-0.7,2.6-0.7c1.5,0,2.7,0.5,3.5,1.4s1.2,2.3,1.2,4.1v1h-7.2c0.1,0.9,0.4,1.6,0.9,2.2s1.2,0.8,2,0.8c1.1,0,2.1-0.5,2.8-1.4
	l1.3,1.3c-0.4,0.7-1,1.2-1.8,1.5S135.9,472.2,135,472.2z M134.7,462.7c-0.7,0-1.2,0.2-1.7,0.7s-0.7,1.1-0.8,2h4.7v-0.2
	c-0.1-0.8-0.3-1.5-0.7-1.9S135.4,462.7,134.7,462.7z M144.1,472h-2.5v-15.8h2.5V472z M153,469c0-0.4-0.2-0.8-0.5-1s-1-0.4-1.8-0.6
	s-1.6-0.4-2.1-0.7c-1.2-0.6-1.9-1.5-1.9-2.6c0-1,0.4-1.8,1.2-2.4s1.8-1,3.1-1c1.3,0,2.4,0.3,3.2,1s1.2,1.5,1.2,2.6h-2.5
	c0-0.5-0.2-0.9-0.5-1.2s-0.8-0.5-1.4-0.5c-0.5,0-1,0.1-1.3,0.4s-0.5,0.6-0.5,1c0,0.4,0.2,0.7,0.5,0.9s1,0.4,1.9,0.6s1.7,0.5,2.3,0.8
	s1,0.7,1.2,1.1s0.4,0.9,0.4,1.5c0,1-0.4,1.8-1.2,2.4s-1.9,0.9-3.3,0.9c-0.9,0-1.7-0.2-2.4-0.5s-1.3-0.8-1.7-1.4s-0.6-1.2-0.6-1.9
	h2.4c0,0.6,0.3,1,0.7,1.4s1,0.5,1.6,0.5c0.7,0,1.2-0.1,1.5-0.4S153,469.4,153,469z"/>
<path id="Recreations" class="st2" d="M114.8,187.2h-2.9v5.8h-2.6v-14.9h5.2c1.7,0,3.1,0.4,4,1.2s1.4,1.9,1.4,3.4
	c0,1-0.2,1.8-0.7,2.5s-1.2,1.2-2,1.6l3.4,6.2v0.1h-2.8L114.8,187.2z M111.9,185.2h2.7c0.9,0,1.6-0.2,2.1-0.7s0.7-1,0.7-1.8
	c0-0.8-0.2-1.4-0.7-1.9s-1.1-0.7-2-0.7h-2.7V185.2z M127.1,193.2c-1.6,0-2.9-0.5-3.8-1.5s-1.5-2.3-1.5-4v-0.3c0-1.1,0.2-2.1,0.6-3
	s1-1.6,1.8-2s1.6-0.7,2.6-0.7c1.5,0,2.7,0.5,3.5,1.4s1.2,2.3,1.2,4.1v1h-7.2c0.1,0.9,0.4,1.6,0.9,2.2s1.2,0.8,2,0.8
	c1.1,0,2.1-0.5,2.8-1.4l1.3,1.3c-0.4,0.7-1,1.2-1.8,1.5S128,193.2,127.1,193.2z M126.8,183.7c-0.7,0-1.2,0.2-1.7,0.7s-0.7,1.1-0.8,2
	h4.7v-0.2c-0.1-0.8-0.3-1.5-0.7-1.9S127.5,183.7,126.8,183.7z M138,191.2c0.6,0,1.1-0.2,1.5-0.5s0.6-0.8,0.7-1.3h2.3
	c0,0.7-0.2,1.3-0.6,1.9s-1,1.1-1.6,1.4s-1.4,0.5-2.2,0.5c-1.6,0-2.8-0.5-3.7-1.5s-1.4-2.4-1.4-4.2v-0.3c0-1.7,0.5-3,1.4-4.1
	s2.1-1.5,3.7-1.5c1.3,0,2.4,0.4,3.2,1.2s1.3,1.8,1.3,3h-2.3c0-0.6-0.2-1.2-0.7-1.6s-0.9-0.6-1.6-0.6c-0.8,0-1.4,0.3-1.9,0.9
	s-0.7,1.5-0.7,2.7v0.4c0,1.2,0.2,2.1,0.7,2.7S137.2,191.2,138,191.2z M150.3,184.2c-0.3-0.1-0.7-0.1-1-0.1c-1.1,0-1.9,0.4-2.3,1.3
	v7.6h-2.5v-11.1h2.4l0.1,1.2c0.6-1,1.4-1.4,2.5-1.4c0.4,0,0.6,0,0.9,0.1L150.3,184.2z M156.7,193.2c-1.6,0-2.9-0.5-3.8-1.5
	s-1.5-2.3-1.5-4v-0.3c0-1.1,0.2-2.1,0.6-3s1-1.6,1.8-2s1.6-0.7,2.6-0.7c1.5,0,2.7,0.5,3.5,1.4s1.2,2.3,1.2,4.1v1h-7.2
	c0.1,0.9,0.4,1.6,0.9,2.2s1.2,0.8,2,0.8c1.1,0,2.1-0.5,2.8-1.4l1.3,1.3c-0.4,0.7-1,1.2-1.8,1.5S157.6,193.2,156.7,193.2z
	 M156.4,183.7c-0.7,0-1.2,0.2-1.7,0.7s-0.7,1.1-0.8,2h4.7v-0.2c-0.1-0.8-0.3-1.5-0.7-1.9S157.1,183.7,156.4,183.7z M169.7,193
	c-0.1-0.2-0.2-0.6-0.3-1c-0.8,0.8-1.8,1.2-2.9,1.2c-1.1,0-2-0.3-2.7-1s-1.1-1.4-1.1-2.4c0-1.2,0.4-2.1,1.3-2.7s2.1-0.9,3.8-0.9h1.5
	v-0.7c0-0.6-0.2-1-0.5-1.4s-0.8-0.5-1.5-0.5c-0.6,0-1,0.1-1.4,0.4s-0.5,0.6-0.5,1.1H163c0-0.6,0.2-1.2,0.6-1.7s1-0.9,1.6-1.2
	s1.5-0.5,2.3-0.5c1.3,0,2.3,0.3,3.1,1s1.2,1.6,1.2,2.8v5c0,1,0.1,1.8,0.4,2.4v0.2H169.7z M167,191.2c0.5,0,1-0.1,1.4-0.4
	s0.8-0.6,1-1v-2.1H168c-0.9,0-1.6,0.2-2.1,0.5s-0.7,0.8-0.7,1.4c0,0.5,0.2,0.9,0.5,1.1S166.5,191.2,167,191.2z M177.6,179.2v2.7h2
	v1.8h-2v6.2c0,0.4,0.1,0.7,0.3,0.9s0.5,0.3,0.9,0.3c0.3,0,0.6,0,0.9-0.1v1.9c-0.6,0.2-1.1,0.2-1.6,0.2c-1.9,0-2.9-1.1-2.9-3.2v-6.3
	h-1.8v-1.8h1.8v-2.7H177.6z M184.1,193h-2.5v-11.1h2.5V193z M181.4,179c0-0.4,0.1-0.7,0.4-1s0.6-0.4,1-0.4s0.8,0.1,1,0.4
	s0.4,0.6,0.4,1c0,0.4-0.1,0.7-0.4,0.9s-0.6,0.4-1,0.4s-0.8-0.1-1-0.4S181.4,179.4,181.4,179z M186.3,187.4c0-1.1,0.2-2.1,0.6-2.9
	s1-1.5,1.8-2s1.7-0.7,2.7-0.7c1.5,0,2.7,0.5,3.6,1.4s1.4,2.2,1.5,3.8l0,0.6c0,1.1-0.2,2.1-0.6,2.9s-1,1.5-1.8,2s-1.7,0.7-2.7,0.7
	c-1.6,0-2.8-0.5-3.8-1.6s-1.4-2.4-1.4-4.2V187.4z M188.8,187.6c0,1.1,0.2,2,0.7,2.7s1.1,1,2,1s1.5-0.3,2-1s0.7-1.6,0.7-2.9
	c0-1.1-0.2-2-0.7-2.7s-1.1-1-2-1c-0.8,0-1.5,0.3-1.9,1S188.8,186.3,188.8,187.6z M201.1,181.9l0.1,1.3c0.8-1,1.9-1.5,3.2-1.5
	c2.3,0,3.5,1.3,3.5,4v7.3h-2.5v-7.2c0-0.7-0.2-1.2-0.5-1.6s-0.8-0.5-1.5-0.5c-1,0-1.8,0.5-2.2,1.4v7.9h-2.5v-11.1H201.1z M216.7,190
	c0-0.4-0.2-0.8-0.5-1s-1-0.4-1.8-0.6s-1.6-0.4-2.1-0.7c-1.2-0.6-1.9-1.5-1.9-2.6c0-1,0.4-1.8,1.2-2.4s1.8-1,3.1-1
	c1.3,0,2.4,0.3,3.2,1s1.2,1.5,1.2,2.6h-2.5c0-0.5-0.2-0.9-0.5-1.2s-0.8-0.5-1.4-0.5c-0.5,0-1,0.1-1.3,0.4s-0.5,0.6-0.5,1
	c0,0.4,0.2,0.7,0.5,0.9s1,0.4,1.9,0.6s1.7,0.5,2.3,0.8s1,0.7,1.2,1.1s0.4,0.9,0.4,1.5c0,1-0.4,1.8-1.2,2.4s-1.9,0.9-3.3,0.9
	c-0.9,0-1.7-0.2-2.4-0.5s-1.3-0.8-1.7-1.4s-0.6-1.2-0.6-1.9h2.4c0,0.6,0.3,1,0.7,1.4s1,0.5,1.6,0.5c0.7,0,1.2-0.1,1.5-0.4
	S216.7,190.4,216.7,190z"/>
<path id="Cabs" class="st2" d="M176.9,849.1c-0.2,1.6-0.7,2.8-1.8,3.7s-2.4,1.3-4.1,1.3c-1.2,0-2.2-0.3-3.1-0.8s-1.6-1.4-2.1-2.4
	s-0.7-2.2-0.8-3.6v-1.4c0-1.4,0.2-2.6,0.7-3.7s1.2-1.9,2.1-2.5s2-0.9,3.2-0.9c1.6,0,3,0.4,4,1.3s1.6,2.2,1.8,3.8h-2.6
	c-0.1-1.1-0.4-1.8-0.9-2.3s-1.2-0.7-2.2-0.7c-1.1,0-2,0.4-2.6,1.2s-0.9,2-0.9,3.6v1.3c0,1.6,0.3,2.8,0.9,3.7s1.4,1.3,2.5,1.3
	c1,0,1.8-0.2,2.3-0.7s0.8-1.2,1-2.3H176.9z M185.6,854c-0.1-0.2-0.2-0.6-0.3-1c-0.8,0.8-1.8,1.2-2.9,1.2c-1.1,0-2-0.3-2.7-1
	s-1.1-1.4-1.1-2.4c0-1.2,0.4-2.1,1.3-2.7s2.1-0.9,3.8-0.9h1.5v-0.7c0-0.6-0.2-1-0.5-1.4s-0.8-0.5-1.5-0.5c-0.6,0-1,0.1-1.4,0.4
	s-0.5,0.6-0.5,1.1h-2.5c0-0.6,0.2-1.2,0.6-1.7s1-0.9,1.6-1.2s1.5-0.5,2.3-0.5c1.3,0,2.3,0.3,3.1,1s1.2,1.6,1.2,2.8v5
	c0,1,0.1,1.8,0.4,2.4v0.2H185.6z M182.9,852.2c0.5,0,1-0.1,1.4-0.4s0.8-0.6,1-1v-2.1h-1.3c-0.9,0-1.6,0.2-2.1,0.5s-0.7,0.8-0.7,1.4
	c0,0.5,0.2,0.9,0.5,1.1S182.3,852.2,182.9,852.2z M200.1,848.6c0,1.7-0.4,3.1-1.2,4.1s-1.8,1.5-3.2,1.5c-1.3,0-2.3-0.5-3-1.4
	l-0.1,1.2h-2.3v-15.8h2.5v5.7c0.7-0.8,1.7-1.3,2.9-1.3c1.4,0,2.4,0.5,3.2,1.5s1.2,2.4,1.2,4.2V848.6z M197.6,848.4
	c0-1.2-0.2-2.1-0.6-2.7s-1-0.9-1.8-0.9c-1.1,0-1.8,0.5-2.3,1.4v4.6c0.4,1,1.2,1.4,2.3,1.4c0.8,0,1.4-0.3,1.8-0.9s0.6-1.5,0.7-2.6
	V848.4z M208.4,851c0-0.4-0.2-0.8-0.5-1s-1-0.4-1.8-0.6s-1.6-0.4-2.1-0.7c-1.2-0.6-1.9-1.5-1.9-2.6c0-1,0.4-1.8,1.2-2.4s1.8-1,3.1-1
	c1.3,0,2.4,0.3,3.2,1s1.2,1.5,1.2,2.6h-2.5c0-0.5-0.2-0.9-0.5-1.2s-0.8-0.5-1.4-0.5c-0.5,0-1,0.1-1.3,0.4s-0.5,0.6-0.5,1
	c0,0.4,0.2,0.7,0.5,0.9s1,0.4,1.9,0.6s1.7,0.5,2.3,0.8s1,0.7,1.2,1.1s0.4,0.9,0.4,1.5c0,1-0.4,1.8-1.2,2.4s-1.9,0.9-3.3,0.9
	c-0.9,0-1.7-0.2-2.4-0.5s-1.3-0.8-1.7-1.4s-0.6-1.2-0.6-1.9h2.4c0,0.6,0.3,1,0.7,1.4s1,0.5,1.6,0.5c0.7,0,1.2-0.1,1.5-0.4
	S208.4,851.4,208.4,851z"/>
<circle id="Oval-21-Copy" class="st3" cx="149.5" cy="222.5" r="14.5"/>
<circle id="Oval-21-Copy-2" class="st3" cx="149.5" cy="862.5" r="14.5"/>
<circle id="Oval-21-Copy-3" class="st3" cx="496.5" cy="681.5" r="14.5"/>
<circle id="Oval-21-Copy-4" class="st3" cx="800.5" cy="221.5" r="14.5"/>
<circle id="Oval-21-Copy-5" class="st3" cx="108.5" cy="425.5" r="14.5"/>
</svg>
